<?xml version="1.0" standalone="no"?>
<!DOCTYPE svg PUBLIC "-//W3C//DTD SVG 20010904//EN"
 "http://www.w3.org/TR/2001/REC-SVG-20010904/DTD/svg10.dtd">
<svg version="1.0" xmlns="http://www.w3.org/2000/svg"
 width="260.000000pt" height="260.000000pt" viewBox="0 0 260.000000 260.000000"
 preserveAspectRatio="xMidYMid meet">
<metadata>
Created by potrace 1.11, written by Peter Selinger 2001-2013
</metadata>
<g transform="translate(0.000000,260.000000) scale(0.100000,-0.100000)"
fill="#000000" stroke="none">
<path d="M0 1300 l0 -1300 1300 0 1300 0 0 1186 c0 800 -3 1183 -10 1179 -10
-6 -122 -106 -449 -399 l-133 -119 -72 2 c-62 2 -75 -1 -91 -19 -15 -17 -17
-24 -7 -38 109 -156 158 -348 133 -525 -7 -50 -17 -100 -21 -111 -58 -154
-106 -230 -203 -323 -228 -218 -549 -264 -837 -121 -122 61 -248 187 -312 313
-61 119 -81 204 -82 335 0 151 35 270 116 397 41 64 137 164 196 205 63 43
180 95 254 113 83 19 239 19 325 -1 90 -21 214 -80 287 -137 55 -44 59 -45 81
-31 20 13 25 27 30 88 l7 73 260 234 c143 129 276 248 296 266 l37 32 -1202 1
-1203 0 0 -1300z"/>
<path d="M1163 1878 c-164 -24 -317 -140 -389 -293 -163 -351 86 -746 470
-745 154 1 263 45 369 151 110 110 165 253 154 400 -25 314 -295 532 -604 487z"/>
</g>
</svg>
